M48
;Layer_Color=6321
;FILE_FORMAT=4:2
METRIC,TZ
;TYPE=PLATED
T1F00S00C0.30
T2F00S00C0.50
T3F00S00C1.00
T4F00S00C1.60
T5F00S00C1.80
T6F00S00C3.00
%
T01
X3250Y2900
X3220Y3170
X3450Y3230
Y3010
X3620Y2880
X3870Y2850
X3850Y3060
X3930Y3270
X3680Y3220
X3750Y3420
X3620Y3610
X3800Y3750
X3330Y3900
X3200Y3500
X4260Y3520
X4350Y3680
Y3840
X4580Y3940
X4790Y3840
X4990Y3910
X5050Y3650
Y3400
Y3150
X4960Y2960
X5270Y3230
X5260Y3500
X5440Y3410
X5550Y3700
X5760Y3630
X6000Y3650
X5950Y3450
X6190Y3460
Y3780
X5970Y3900
X5700Y3950
X5450
X5280Y3750
X4530Y3640
X4500Y3390
X4350Y3290
X4530Y3170
X4090Y3060
X4130Y2900
X4290Y2840
X5510
X5500Y3000
X5700Y2860
X5730Y3170
X6400Y2850
X6530Y2820
X6700Y2850
X6940Y2840
Y2780
X7000
X7060
Y2840
X7000
Y2900
X6940
Y2960
X7000
X7060
Y2900
Y3020
X7000
X6940
Y3080
Y3140
X7000
X7060
Y3080
X7000
Y3200
Y3260
X6940
Y3200
X7060
Y3260
Y3320
Y3380
X7000
X6940
Y3320
X7000
X7200Y3450
X6800
X6650Y3500
Y3750
X6480Y3890
Y3600
X7690Y3500
Y3380
Y3250
X7660Y2940
X7500Y2840
X7350Y2850
X7900Y2800
Y3450
X7750Y3650
X7850Y3850
X8050Y3400
X8350Y3600
X8800Y3650
Y3450
X9100Y3400
Y3700
X9460Y3810
Y3220
X9500Y2950
X9290Y2970
X9100Y2850
X8840
X8740
X8790Y2910
X8840Y2970
X8740
X8790Y3030
Y2790
X8350Y2850
X8250Y3000
X8120Y2940
X8450Y3050
X9150Y3150
X9210Y4090
X9300Y4200
X9100Y4240
X9250Y4450
X8970Y4480
X8820
X8860Y4750
X8980
Y4870
X8860
X8590Y4860
X8690Y5140
X8800
X8860Y5260
X8870Y5480
X8690Y5500
X8520Y5980
X8670Y6180
X8780
X8930Y6200
X9020Y6270
Y6070
X9230Y6170
X9250Y6420
X9180Y6500
X9100Y6570
X8800Y6590
X8700
X8600
Y6490
X8700
X8800
Y6690
X8700
X8600
X8230Y6700
Y6580
X8010Y6440
X8030Y6250
X8010Y6840
X8050Y7120
X8190Y7340
X8420Y7320
X8480Y7110
X8820Y6990
X9070Y7110
X9180Y7320
X9160Y7460
X8980Y7660
X8750Y7540
X8470Y7590
X8120Y7620
X9390
X9490Y7380
X9730Y7160
X9670Y5550
X9550Y5650
X9240Y5160
X9250Y4910
Y4810
X9690Y4450
X10050
X9900Y4250
X10090Y4020
X8730Y4050
X8600
X8470
X8340Y4250
Y4380
Y4510
X8140Y4440
X8120Y4670
X8050Y4950
X8240Y4930
X8090Y5170
X7940Y5340
X7780Y5520
X7830Y5040
X7580
X7520Y4450
X7290Y4600
X7150Y4800
X7200Y4200
X6800Y4100
X6650Y4000
X6540Y4560
X6160Y4530
X6030
X5900
X5800Y4900
X5950Y5100
X6150Y5250
X6730Y5630
Y5750
Y5870
Y5990
X6790Y6200
X6510Y6320
X6520Y6560
X6650
X6820Y6570
X6960Y6650
X7190Y6660
X7330Y6990
X7580Y7090
X7830Y7060
X7820Y7370
X7650Y7600
X7330Y7640
X7360Y7410
X7070
X6970Y7210
X6830Y7320
X6650Y7450
X6680Y7590
X6920Y7620
X6490Y7320
X6360Y7350
X5720Y7320
X5570Y7380
X5530Y7220
X5530Y6890
X5480Y6760
X5420Y6590
X5250Y6770
X5130Y6920
X4990Y6890
X4860Y6750
X4670Y6870
X4650Y6650
X5070Y6640
X5010Y7230
X5020Y7400
X4840Y7370
X4710
X4630Y7250
X4220Y7170
X4110Y6920
X4220Y6730
X4060Y6420
X4180Y6130
X4210Y6000
X4190Y5640
X4310Y5630
X4430Y5550
X4320Y5430
X4180Y5230
X4210Y5100
X4190Y4740
X4310Y4730
X4400Y4550
X4100Y4540
X4060Y4260
X4330
X4520Y4190
X4790Y4150
X5020Y4200
X5200Y4050
X5300Y4260
X5500Y4170
X5150Y4450
X4880
X4650
X4770Y4920
X4810Y4990
X4730
X4770Y5060
X4810Y5130
X4730
X4770Y5200
Y5820
X4810Y5890
X4730
X4770Y5960
X4810Y6030
X4730
X4770Y6100
X5040Y5700
Y4800
X4230Y4060
X7570Y3990
X7870Y4320
X7920Y5920
X7690Y6820
X6710Y6970
X5750Y6560
X4020Y7570
X3790Y7440
X3620Y7390
Y7610
Y6950
Y6840
X3740Y6760
Y6580
X3610
X3480
X3890Y6640
X3960Y7090
X3950Y6040
X3550Y6100
X3270
X2990Y6090
X2660Y6120
X3190Y6340
X3520Y5500
Y5240
Y4970
X3620Y4370
X3350Y4400
X3050
X2700
X3250Y4150
X3520
X3710Y3990
X3850Y4450
T02
X2615Y2715
X2760Y2655
X2905Y2715
X2965Y2860
X2905Y3005
X2760Y3065
X2615Y3005
X2555Y2860
X2530Y3275
X2640Y3335
Y3215
X2750Y3275
X2860Y3215
Y3335
X2970Y3275
X3150Y2650
X3550
X3950
X4350
X4750
X5150
X5550
X5950
X6350
X6750
X7150
X7550
X7145Y3605
X7205Y3750
X7145Y3895
X7000Y3955
X6855Y3895
X6795Y3750
X6855Y3605
X7000Y3545
X7900Y3680
X5760Y3030
X4780Y3600
X8120Y3560
X7950Y2650
X8350
X8750
X9150
X9550
X9755Y2715
X9900Y2655
X10045Y2715
X10105Y2860
X10045Y3005
X9900Y3065
X9755Y3005
X9695Y2860
X8690Y4480
X8380Y4810
X7950Y4690
X9040Y5920
X9150Y7850
X8750
X8350
X7950
X9550
X9755Y7785
X9900Y7845
X10045Y7785
X10105Y7640
X10045Y7495
X9900Y7435
X9755Y7495
X9695Y7640
X7550Y7850
X7150
X6750
X6350
X5950
X5550
X5150
X5280Y7590
X4750Y7850
X4350
X4540Y6240
X4950Y6240
X5060
X5830Y6200
X6350
X6090Y5770
X6340Y5350
X6460
X6860Y5550
X6990Y5130
Y4890
X6350Y4710
X5830Y5300
X5060Y5340
X4950Y5340
X4540Y5340
X4610Y5690
Y4790
X3990Y5230
X5700Y7190
X7880Y4820
X3890Y4670
X3500Y4700
X3360
X3220
X3290Y4800
X3430
Y4600
X3290
X2820
X2680
X2610Y4700
X2750
X2890
X2820Y4800
X2680
X2640Y4185
Y4065
X2530Y4125
X2750
X2860Y4185
Y4065
X2970Y4125
X2820Y5700
X2680
X2610Y5800
X2750
X2890
X2820Y5900
X2680
X2640Y6315
Y6435
X2750Y6375
X2860Y6315
Y6435
X2970Y6375
X2530
Y7225
X2640Y7165
Y7285
X2750Y7225
X2860Y7285
Y7165
X2970Y7225
X2905Y7495
X2965Y7640
X2905Y7785
X2760Y7845
X2615Y7785
X2555Y7640
X2615Y7495
X2760Y7435
X3150Y7850
X3550
X3950
X3430Y5900
X3290
X3220Y5800
X3360
X3500
X3430Y5700
X3290
X3870Y5230
T03
X9860Y3496
Y3750
Y4004
Y4746
Y5000
Y5254
X9857Y6042
Y6296
Y6550
Y6804
Y7058
X9603
Y6804
Y6550
Y6296
Y6042
T04
X2750Y5250
T05
X3200Y5250
T06
X2760Y2860
X7000Y3750
X9900Y2860
Y7640
X2760
M30
